<svg xmlns="http://www.w3.org/2000/svg" viewBox="0 0 370 224" width="370" height="224">
	<style>
		tspan { white-space:pre }
		.shp0 { fill: #bf1e26 } 
		.shp1 { fill: #611010 } 
	</style>
	<g id="Background">
		<path id="Path 0" fill-rule="evenodd" class="shp0" d="M74 26.02C74.28 26.04 91.04 35.6 147.99 68.5L148.07 154.5L125.78 167.42C113.53 174.53 97.09 184.09 89.25 188.67C81.41 193.25 74.55 197 74 197C73.45 197 56.56 187.44 -0.06 154.5L-0.21 68.47L36.64 47.23C56.91 35.55 73.72 26 74 26.02ZM27.07 62.44C18.59 67.25 11.74 71.49 11.84 71.85C11.95 72.21 13.83 73.96 16.02 75.75L20 79L69.5 51.32C69.94 40.73 69.66 39 68.76 39.01C68.07 39.02 61.88 42.32 55 46.35C48.13 50.38 35.56 57.62 27.07 62.44ZM19 89L8 80C8 130.38 8.22 145 8.5 145C8.78 145 11.14 143.21 13.75 141.02C16.36 138.83 19.06 137.03 19.75 137.02C20.44 137.01 31.8 143.07 45 150.5C58.2 157.93 69.56 163.99 70.25 163.99C70.94 163.98 84.44 156.78 100.25 147.99C116.06 139.19 129.22 132 129.5 132C129.78 132 132.14 133.84 134.75 136.1L139.5 140.2C139.93 114.86 139.93 100.36 139.77 91.63L139.5 75.76C131.75 82.16 129.16 84.01 128.75 84.01C128.34 84 116.75 77.7 103 70C89.25 62.3 77.89 56.04 77.75 56.1C77.61 56.15 64.34 63.57 48.25 72.6L19 89ZM98.5 158.52C81.89 167.75 78.44 170.04 78.16 172.06C77.97 173.4 78.12 176.75 78.49 179.5L79.17 184.5C124.38 158.54 137.5 150.61 137.5 150.13C137.5 149.65 135.59 147.63 133.25 145.63C130.91 143.63 128.66 142 128.25 142.01C127.84 142.01 125.47 143.23 123 144.72C120.53 146.21 109.5 152.42 98.5 158.52Z" />
		<path id="Path 1" fill-rule="evenodd" class="shp1" d="M45.96 80L77 80L76.5 88.5L55 89L55 97L61 97C64.3 97 67.56 97.11 68.25 97.25C68.94 97.39 69.72 99.26 70 101.42C70.46 105.04 70.61 105.2 72 103.54C72.83 102.56 75.19 100.91 77.25 99.88C79.71 98.65 83.15 98 87.25 97.99C92.54 97.98 94.34 98.48 98.96 101.24C103.25 103.81 105.01 105.67 107.24 110C109.15 113.72 110.05 116.95 110.01 120C109.99 122.47 109.41 126.24 108.73 128.36C108.06 130.49 106.15 133.82 104.5 135.76C102.85 137.7 99.7 140.22 97.5 141.36C94.66 142.83 91.62 143.43 87 143.43C82.31 143.43 79.39 142.84 76.5 141.31C74.3 140.15 71.51 138.14 70.31 136.85C69.1 135.56 67.19 132.36 64 125L46.5 124.5L45.96 80ZM55 115C64.33 114.98 64.56 114.83 66.25 110.99L68 107L55 107L55 115ZM75.73 112.46C74.23 114.66 74.2 115.07 75.5 115.5C76.5 115.83 77 117.33 77 120C77 122.8 76.48 124.27 75.25 124.89C73.58 125.74 73.58 125.91 75.25 128.39C76.21 129.83 78.01 131.68 79.25 132.52C80.49 133.35 83.3 134.27 85.5 134.57C88.26 134.94 90.58 134.55 92.98 133.3C94.89 132.31 97.49 129.93 98.76 128C100.15 125.88 101.05 123.02 101.03 120.75C101.01 118.69 100.33 115.65 99.5 114C98.67 112.35 96.54 110.1 94.75 109C92.73 107.76 89.8 107.02 87 107.04C84.53 107.06 81.37 107.72 79.98 108.5C78.6 109.28 76.69 111.06 75.73 112.46ZM228 89L236 89L236 101.5C236 109.17 236.39 114 237 114C237.55 114 240.25 111.08 243 107.5C247.57 101.56 248.33 101 251.75 100.97C253.81 100.96 255.84 101.18 256.25 101.47C256.66 101.76 254.76 104.81 247.02 114.5L250.68 121C252.69 124.58 254.93 128.4 255.67 129.5C256.41 130.6 256.71 131.84 256.34 132.25C255.97 132.66 253.94 133 251.83 133C248.19 133 247.84 132.71 241.77 121.5L238.91 125C237.34 126.92 236.04 129.51 236.03 130.75C236 132.7 235.47 133 228 133L228 89ZM349.56 90.29C353.17 90.44 356 91.36 359.47 93.5C362.77 95.54 365.21 98.1 367.09 101.5C369.03 104.99 369.89 108.01 369.95 111.5C369.99 114.49 369.26 118.11 368.13 120.5C367.08 122.7 364.49 126.11 362.37 128.09C359.69 130.57 356.81 132.06 353 132.94C348.94 133.88 346.46 133.93 343.5 133.15C341.3 132.57 337.7 130.82 335.5 129.26C333.3 127.7 330.49 124.41 329.26 121.96C327.74 118.91 327.02 115.68 327.01 111.75C327.01 108.14 327.69 104.61 328.86 102.25C329.88 100.19 332.46 97.02 334.61 95.22C336.75 93.42 339.85 91.52 341.5 91.01C343.15 90.49 346.78 90.17 349.56 90.29ZM336.5 106C335.68 107.65 335 110.13 335 111.5C335 112.88 335.68 115.58 336.5 117.5C337.32 119.42 339.46 121.9 341.25 123C343.04 124.09 345.96 124.99 347.75 125C349.54 125 352.01 124.49 353.25 123.88C354.49 123.26 356.53 121.79 357.8 120.63C359.06 119.46 360.52 116.81 361.05 114.75C361.82 111.72 361.62 110.14 360 106.5C358.73 103.64 356.9 101.45 355 100.5C353.35 99.67 350.04 99 347.65 99C344.86 99 342.36 99.71 340.65 101C339.19 102.1 337.32 104.35 336.5 106ZM161 91L195 91L195 99L182 99L182 133L174 133L173.5 99.5L161 99L161 91ZM295 91L324 91L324 99L304 99L304 107L317 107L317 116L304 116L304 124L324 124L324 133L295 133L295 91ZM207.5 100.06C209.15 100.02 212.51 101 214.98 102.24C217.67 103.6 220.25 105.89 221.45 108C222.72 110.21 223.45 113.34 223.45 116.5C223.45 119.71 222.72 122.75 221.42 125C220.3 126.92 217.84 129.53 215.94 130.78C213.46 132.42 211.1 133.04 207.5 133C204.09 132.96 201.42 132.23 199.12 130.72C197.26 129.5 194.92 127.15 193.9 125.5C192.75 123.61 192.05 120.55 192.03 117.25C192.01 114.36 192.63 110.76 193.4 109.25C194.18 107.74 195.87 105.51 197.15 104.31C198.44 103.11 200.63 101.67 202 101.12C203.38 100.58 205.85 100.09 207.5 100.06ZM201.21 111.94C200.54 113.07 199.98 115.24 199.97 116.75C199.95 118.26 200.85 120.74 201.97 122.25C203.45 124.25 204.88 125.01 207.25 125.03C209.34 125.04 211.3 124.24 212.73 122.78C214.14 121.34 214.98 119.21 215.02 117C215.06 115.04 214.3 112.53 213.29 111.29C212.31 110.08 210.38 108.86 209 108.58C207.63 108.31 205.58 108.49 204.46 108.99C203.33 109.48 201.87 110.81 201.21 111.94ZM275.5 100.43C278.28 100.66 281.61 101.68 283 102.73C284.38 103.77 286.54 106.62 287.82 109.06C289.68 112.62 290.03 114.49 289.58 118.5C289.28 121.25 288.19 124.63 287.17 126C286.15 127.38 283.78 129.53 281.91 130.78C279.45 132.42 277.11 133.04 273.5 133C270.38 132.96 267.28 132.2 265.25 130.97C263.46 129.89 261.1 127.2 260 125C258.89 122.78 258 119 258 116.5C258 114.03 258.63 110.76 259.4 109.25C260.18 107.74 261.87 105.51 263.15 104.31C264.44 103.11 266.63 101.65 268 101.07C269.38 100.49 272.75 100.2 275.5 100.43ZM267.25 112.5C266.56 113.88 266 116.13 266 117.5C266 118.88 267.13 121.13 268.5 122.5C269.88 123.88 272.13 125 273.5 125C274.88 125 276.74 124.66 277.64 124.25C278.54 123.84 279.89 122.26 280.64 120.75C281.39 119.24 281.78 116.76 281.52 115.25C281.25 113.74 280.24 111.75 279.27 110.83C278.3 109.91 276.38 108.92 275 108.62C273.63 108.33 271.6 108.52 270.5 109.05C269.4 109.57 267.94 111.13 267.25 112.5Z" />
	</g>
</svg>